<?xml version="1.0" standalone="no"?><!DOCTYPE svg PUBLIC "-//W3C//DTD SVG 1.1//EN" "http://www.w3.org/Graphics/SVG/1.1/DTD/svg11.dtd">
<svg t="1678903115169" class="icon" viewBox="0 0 1024 1024" version="1.1" xmlns="http://www.w3.org/2000/svg" p-id="1554" width="128" height="128">
	<path d="M560.10038 243.8L467.60038 86.2C455.20038 65.1 428.10038 58 407.00038 70.4c-21.1 12.4-28.2 39.5-15.8 60.6l109.5 186.7 59.4-73.9zM940.90038 893L598.30038 309c-14.2 14.1-43.3 49.9-41 105.3l307.2 523.6c12.4 21.1 39.5 28.2 60.6 15.8 21.1-12.5 28.2-39.6 15.8-60.7zM170.20038 769L97.40038 891.3c-12.5 21-5.6 48.2 15.4 60.7s48.2 5.6 60.7-15.4L254.80038 800c-31.3-37.1-71.1-33.6-84.6-31z" fill="#afb1b3" p-id="1555" data-spm-anchor-id="a313x.7781069.0.i2" class="selected"></path>
	<path d="M636.40038 72c-21-12.5-48.2-5.6-60.7 15.4l-376 631.9 97.2 9.8 354.9-596.5c12.6-20.9 5.7-48.1-15.4-60.6z" fill="#afb1b3" p-id="1556" data-spm-anchor-id="a313x.7781069.0.i0" class="selected"></path>
	<path d="M641.30038 651l-597.1 1.4c-24.5 0.1-44.3 19.9-44.2 44.4 0.1 24.5 19.9 44.3 44.4 44.2l638.9-1.5c1.6-53.3-26.1-78.5-42-88.5zM979.60038 650.3l-259.1 0.6 39.3 88.5 220-0.5c24.5-0.1 44.3-19.9 44.2-44.4-0.1-24.5-19.9-44.3-44.4-44.2z" fill="#afb1b3" p-id="1557" data-spm-anchor-id="a313x.7781069.0.i1" class="selected"></path>
</svg>